<svg xmlns="http://www.w3.org/2000/svg" width="1056" height="816" viewBox="0 0 1056 816">
  <defs>
    <marker id="arrowhead" markerWidth="6" markerHeight="4"
            refX="6" refY="2" orient="auto">
      <polygon points="0 0, 6 2, 0 4" fill="black"/>
    </marker>
  </defs>
  <g id="drawing">
    <circle cx="228.0" cy="168.0" r="1.5" fill="red" stroke="red" stroke-width="1.0"/>
    <path d="M 228.0,48.0 A 120.0,120.0 0 0,1 348.0,168.0" fill="none" stroke="black" stroke-width="2.0"/>
    <circle cx="828.0" cy="168.0" r="1.5" fill="red" stroke="red" stroke-width="1.0"/>
    <path d="M 948.0,168.0 A 120.0,120.0 0 0,1 828.0,288.0" fill="none" stroke="black" stroke-width="2.0"/>
    <circle cx="228.0" cy="648.0" r="1.5" fill="red" stroke="red" stroke-width="1.0"/>
    <path d="M 228.0,768.0 A 120.0,120.0 0 0,1 108.0,648.0" fill="none" stroke="black" stroke-width="2.0"/>
    <circle cx="828.0" cy="648.0" r="1.5" fill="red" stroke="red" stroke-width="1.0"/>
    <path d="M 708.0,648.0 A 120.0,120.0 0 0,1 828.0,528.0" fill="none" stroke="black" stroke-width="2.0"/>
    <text x="138.0" y="18.0" font-size="10" font-family="sans-serif" fill="blue" text-anchor="start">arcstart=0</text>
    <text x="738.0" y="18.0" font-size="10" font-family="sans-serif" fill="blue" text-anchor="start">arcstart=90</text>
    <text x="138.0" y="498.0" font-size="10" font-family="sans-serif" fill="blue" text-anchor="start">arcstart=180</text>
    <text x="738.0" y="498.0" font-size="10" font-family="sans-serif" fill="blue" text-anchor="start">arcstart=270</text>
  </g>
</svg>