<svg xmlns="http://www.w3.org/2000/svg" width="1056" height="816" viewBox="0 0 1056 816">
  <defs>
    <marker id="arrowhead" markerWidth="6" markerHeight="4"
            refX="6" refY="2" orient="auto">
      <polygon points="0 0, 6 2, 0 4" fill="black"/>
    </marker>
  </defs>
  <g id="drawing">
    <rect x="48.0" y="282.0" width="480.0" height="12.0" fill="#BEBEBE" stroke="black" stroke-width="1.0"/>
    <rect x="528.0" y="282.0" width="288.0" height="240.0" fill="none" stroke="black" stroke-width="1.0"/>
    <rect x="816.0" y="282.0" width="192.0" height="240.0" fill="none" stroke="black" stroke-width="1.0"/>
    <line x1="96.0" y1="522.0" x2="168.0" y2="522.0" stroke="black" stroke-width="1.0"/>
    <path d="M 168.0,522.0 A 72.0,72.0 0 0,1 96.0,594.0" fill="none" stroke="black" stroke-width="1.0" stroke-dasharray="4,3"/>
    <line x1="408.0" y1="519.0" x2="504.0" y2="519.0" stroke="black" stroke-width="1.0"/>
    <line x1="408.0" y1="525.0" x2="504.0" y2="525.0" stroke="black" stroke-width="1.0"/>
    <text x="48.0" y="270.0" font-size="10" font-family="sans-serif" fill="red" text-anchor="middle">1</text>
    <text x="288.0" y="321.4" font-size="11" font-family="sans-serif" fill="#555" text-anchor="middle">20' × 6"</text>
    <text x="528.0" y="270.0" font-size="10" font-family="sans-serif" fill="red" text-anchor="middle">2</text>
    <text x="672.0" y="534.0" font-size="11" font-family="sans-serif" fill="#555" text-anchor="middle">12' × 10'</text>
    <text x="672.0" y="402.0" font-size="10" font-family="sans-serif" fill="black" text-anchor="middle" dominant-baseline="central">Living</text>
    <text x="816.0" y="270.0" font-size="10" font-family="sans-serif" fill="red" text-anchor="middle">3</text>
    <text x="912.0" y="534.0" font-size="11" font-family="sans-serif" fill="#555" text-anchor="middle">8' × 10'</text>
    <text x="912.0" y="402.0" font-size="10" font-family="sans-serif" fill="black" text-anchor="middle" dominant-baseline="central">Bedroom</text>
    <text x="96.0" y="440.0" font-size="10" font-family="sans-serif" fill="red" text-anchor="middle">4</text>
    <text x="132.0" y="611.0" font-size="11" font-family="sans-serif" fill="#555" text-anchor="middle">3'</text>
    <text x="408.0" y="510.0" font-size="10" font-family="sans-serif" fill="red" text-anchor="middle">5</text>
    <text x="456.0" y="561.4" font-size="11" font-family="sans-serif" fill="#555" text-anchor="middle">4'</text>
  </g>
</svg>